<mxfile host="Electron" modified="2024-08-20T03:57:02.411Z" agent="Mozilla/5.0 (Windows NT 10.0; Win64; x64) AppleWebKit/537.36 (KHTML, like Gecko) draw.io/24.1.0 Chrome/120.0.6099.109 Electron/28.1.0 Safari/537.36" etag="07jYEdcmcEmgVCjIuksm" version="24.1.0" type="device">
  <diagram name="Page-1" id="e7e014a7-5840-1c2e-5031-d8a46d1fe8dd">
    <mxGraphModel dx="2074" dy="1204" grid="1" gridSize="10" guides="1" tooltips="1" connect="1" arrows="1" fold="1" page="1" pageScale="1" pageWidth="1169" pageHeight="826" background="none" math="0" shadow="0">
      <root>
        <mxCell id="0" />
        <mxCell id="1" parent="0" />
        <mxCell id="2" value="UI" style="swimlane;whiteSpace=wrap" parent="1" vertex="1">
          <mxGeometry x="11" y="120" width="350" height="770" as="geometry" />
        </mxCell>
        <mxCell id="5" value="" style="ellipse;shape=startState;fillColor=#000000;strokeColor=#ff0000;" parent="2" vertex="1">
          <mxGeometry x="70" y="40" width="30" height="30" as="geometry" />
        </mxCell>
        <mxCell id="6" value="" style="edgeStyle=elbowEdgeStyle;elbow=horizontal;verticalAlign=bottom;endArrow=open;endSize=8;strokeColor=#FF0000;endFill=1;rounded=0;entryX=0.5;entryY=0;entryDx=0;entryDy=0;" parent="2" source="5" target="5YRIYOnIGHO2y424pPSx-42" edge="1">
          <mxGeometry x="100" y="40" as="geometry">
            <mxPoint x="85" y="160" as="targetPoint" />
          </mxGeometry>
        </mxCell>
        <mxCell id="7" value="start(address)" style="" parent="2" vertex="1">
          <mxGeometry x="30" y="670" width="110" height="50" as="geometry" />
        </mxCell>
        <mxCell id="5YRIYOnIGHO2y424pPSx-42" value="snapshot support" style="rhombus;whiteSpace=wrap;html=1;" parent="2" vertex="1">
          <mxGeometry x="45" y="110" width="80" height="80" as="geometry" />
        </mxCell>
        <mxCell id="5YRIYOnIGHO2y424pPSx-43" value="create snapshot,and remove the snapshot when finish" style="rounded=0;whiteSpace=wrap;html=1;" parent="2" vertex="1">
          <mxGeometry x="20" y="220" width="110" height="80" as="geometry" />
        </mxCell>
        <mxCell id="5YRIYOnIGHO2y424pPSx-44" value="" style="edgeStyle=elbowEdgeStyle;elbow=horizontal;strokeColor=#FF0000;endArrow=open;endFill=1;rounded=0;entryX=0;entryY=0.5;entryDx=0;entryDy=0;exitX=0;exitY=0.5;exitDx=0;exitDy=0;" parent="2" source="5YRIYOnIGHO2y424pPSx-42" target="5YRIYOnIGHO2y424pPSx-43" edge="1">
          <mxGeometry width="100" height="100" relative="1" as="geometry">
            <mxPoint x="40" y="150" as="sourcePoint" />
            <mxPoint x="20" y="260" as="targetPoint" />
            <Array as="points">
              <mxPoint x="10" y="210" />
            </Array>
          </mxGeometry>
        </mxCell>
        <mxCell id="5YRIYOnIGHO2y424pPSx-45" value="Y" style="edgeLabel;html=1;align=center;verticalAlign=middle;resizable=0;points=[];" parent="5YRIYOnIGHO2y424pPSx-44" vertex="1" connectable="0">
          <mxGeometry x="0.2358" y="1" relative="1" as="geometry">
            <mxPoint as="offset" />
          </mxGeometry>
        </mxCell>
        <mxCell id="5YRIYOnIGHO2y424pPSx-47" value="" style="edgeStyle=orthogonalEdgeStyle;elbow=horizontal;strokeColor=#FF0000;endArrow=open;endFill=1;rounded=0;exitX=1;exitY=0.5;exitDx=0;exitDy=0;entryX=0.5;entryY=0;entryDx=0;entryDy=0;" parent="2" source="5YRIYOnIGHO2y424pPSx-42" target="5YRIYOnIGHO2y424pPSx-49" edge="1">
          <mxGeometry width="100" height="100" relative="1" as="geometry">
            <mxPoint x="155" y="210" as="sourcePoint" />
            <mxPoint x="116.25" y="300" as="targetPoint" />
          </mxGeometry>
        </mxCell>
        <mxCell id="5YRIYOnIGHO2y424pPSx-48" value="N" style="edgeLabel;html=1;align=center;verticalAlign=middle;resizable=0;points=[];" parent="5YRIYOnIGHO2y424pPSx-47" vertex="1" connectable="0">
          <mxGeometry x="0.2358" y="1" relative="1" as="geometry">
            <mxPoint as="offset" />
          </mxGeometry>
        </mxCell>
        <mxCell id="5YRIYOnIGHO2y424pPSx-49" value="readonly" style="rhombus;whiteSpace=wrap;html=1;" parent="2" vertex="1">
          <mxGeometry x="139" y="290" width="80" height="50" as="geometry" />
        </mxCell>
        <mxCell id="5YRIYOnIGHO2y424pPSx-50" value="set readonly,and reset when finish" style="rounded=0;whiteSpace=wrap;html=1;" parent="2" vertex="1">
          <mxGeometry x="139" y="380" width="80" height="60" as="geometry" />
        </mxCell>
        <mxCell id="5YRIYOnIGHO2y424pPSx-51" value="" style="edgeStyle=elbowEdgeStyle;elbow=horizontal;verticalAlign=bottom;endArrow=open;endSize=8;strokeColor=#FF0000;endFill=1;rounded=0" parent="2" edge="1">
          <mxGeometry x="30" y="-100" as="geometry">
            <mxPoint x="179" y="380" as="targetPoint" />
            <mxPoint x="179" y="340" as="sourcePoint" />
          </mxGeometry>
        </mxCell>
        <mxCell id="5YRIYOnIGHO2y424pPSx-52" value="Y" style="edgeLabel;html=1;align=center;verticalAlign=middle;resizable=0;points=[];" parent="5YRIYOnIGHO2y424pPSx-51" vertex="1" connectable="0">
          <mxGeometry relative="1" as="geometry">
            <mxPoint y="-11" as="offset" />
          </mxGeometry>
        </mxCell>
        <mxCell id="5YRIYOnIGHO2y424pPSx-56" value="" style="edgeStyle=elbowEdgeStyle;strokeColor=#FF0000;endArrow=open;endFill=1;rounded=0;exitX=0.5;exitY=1;exitDx=0;exitDy=0;entryX=0.5;entryY=0;entryDx=0;entryDy=0;elbow=vertical;" parent="2" source="5YRIYOnIGHO2y424pPSx-43" target="7" edge="1">
          <mxGeometry width="100" height="100" relative="1" as="geometry">
            <mxPoint x="45" y="810" as="sourcePoint" />
            <mxPoint x="80" y="630" as="targetPoint" />
            <Array as="points">
              <mxPoint x="50" y="620" />
            </Array>
          </mxGeometry>
        </mxCell>
        <mxCell id="5YRIYOnIGHO2y424pPSx-59" value="save file when read,** files may be inconsistent" style="rounded=0;whiteSpace=wrap;html=1;" parent="2" vertex="1">
          <mxGeometry x="119" y="500" width="120" height="60" as="geometry" />
        </mxCell>
        <mxCell id="5YRIYOnIGHO2y424pPSx-61" value="" style="edgeStyle=elbowEdgeStyle;elbow=horizontal;strokeColor=#FF0000;endArrow=open;endFill=1;rounded=0;exitX=1;exitY=0.5;exitDx=0;exitDy=0;entryX=1;entryY=0.5;entryDx=0;entryDy=0;" parent="2" source="5YRIYOnIGHO2y424pPSx-49" target="5YRIYOnIGHO2y424pPSx-59" edge="1">
          <mxGeometry width="100" height="100" relative="1" as="geometry">
            <mxPoint x="141.5" y="310" as="sourcePoint" />
            <mxPoint x="249" y="530" as="targetPoint" />
            <Array as="points">
              <mxPoint x="269" y="420" />
            </Array>
          </mxGeometry>
        </mxCell>
        <mxCell id="5YRIYOnIGHO2y424pPSx-63" value="N" style="edgeLabel;html=1;align=center;verticalAlign=middle;resizable=0;points=[];" parent="5YRIYOnIGHO2y424pPSx-61" vertex="1" connectable="0">
          <mxGeometry x="0.1667" y="-1" relative="1" as="geometry">
            <mxPoint as="offset" />
          </mxGeometry>
        </mxCell>
        <mxCell id="5YRIYOnIGHO2y424pPSx-66" value="" style="edgeStyle=orthogonalEdgeStyle;strokeColor=#FF0000;endArrow=open;endFill=1;rounded=0;entryX=0.5;entryY=0;entryDx=0;entryDy=0;exitX=0;exitY=0.5;exitDx=0;exitDy=0;" parent="2" source="5YRIYOnIGHO2y424pPSx-50" target="7" edge="1">
          <mxGeometry width="100" height="100" relative="1" as="geometry">
            <mxPoint x="140" y="320" as="sourcePoint" />
            <mxPoint x="140" y="690" as="targetPoint" />
            <Array as="points">
              <mxPoint x="85" y="410" />
            </Array>
          </mxGeometry>
        </mxCell>
        <mxCell id="5YRIYOnIGHO2y424pPSx-67" value="" style="edgeStyle=orthogonalEdgeStyle;strokeColor=#FF0000;endArrow=open;endFill=1;rounded=0;entryX=0.5;entryY=0;entryDx=0;entryDy=0;exitX=0;exitY=0.5;exitDx=0;exitDy=0;" parent="2" source="5YRIYOnIGHO2y424pPSx-59" target="7" edge="1">
          <mxGeometry width="100" height="100" relative="1" as="geometry">
            <mxPoint x="173" y="440" as="sourcePoint" />
            <mxPoint x="119" y="700" as="targetPoint" />
            <Array as="points" />
          </mxGeometry>
        </mxCell>
        <mxCell id="3" value="Source" style="swimlane;whiteSpace=wrap" parent="1" vertex="1">
          <mxGeometry x="361" y="120" width="250" height="770" as="geometry" />
        </mxCell>
        <mxCell id="13" value="" style="ellipse;shape=startState;fillColor=#000000;strokeColor=#ff0000;" parent="3" vertex="1">
          <mxGeometry x="109" y="40" width="30" height="30" as="geometry" />
        </mxCell>
        <mxCell id="14" value="" style="edgeStyle=elbowEdgeStyle;elbow=horizontal;verticalAlign=bottom;endArrow=open;endSize=8;strokeColor=#FF0000;endFill=1;rounded=0" parent="3" source="13" edge="1">
          <mxGeometry x="40" y="20" as="geometry">
            <mxPoint x="124" y="110" as="targetPoint" />
            <mxPoint x="124" y="70" as="sourcePoint" />
          </mxGeometry>
        </mxCell>
        <mxCell id="15" value="url=start_reader_service(address)" style="" parent="3" vertex="1">
          <mxGeometry x="29" y="110" width="190" height="50" as="geometry" />
        </mxCell>
        <mxCell id="16" value="start_transfer(url)" style="" parent="3" vertex="1">
          <mxGeometry x="68" y="192" width="110" height="50" as="geometry" />
        </mxCell>
        <mxCell id="17" value="" style="endArrow=open;strokeColor=#FF0000;endFill=1;rounded=0" parent="3" target="16" edge="1">
          <mxGeometry relative="1" as="geometry">
            <mxPoint x="124" y="160" as="sourcePoint" />
          </mxGeometry>
        </mxCell>
        <mxCell id="18" value="it=it || iterator(address)&#xa;file=it.next()" style="" parent="3" vertex="1">
          <mxGeometry x="61.5" y="357" width="133" height="50" as="geometry" />
        </mxCell>
        <mxCell id="32" value="" style="endArrow=none;strokeColor=#FF0000;endFill=0;rounded=0;dashed=1;entryX=0.5;entryY=0;entryDx=0;entryDy=0;" parent="3" target="18" edge="1">
          <mxGeometry relative="1" as="geometry">
            <mxPoint x="128" y="247" as="sourcePoint" />
            <mxPoint x="128" y="287" as="targetPoint" />
          </mxGeometry>
        </mxCell>
        <mxCell id="CguCu8YsI3yu1mB0ZQNF-57" value="file.stat()" style="rounded=0;whiteSpace=wrap;html=1;" parent="3" vertex="1">
          <mxGeometry x="75.5" y="580" width="120" height="50" as="geometry" />
        </mxCell>
        <mxCell id="CguCu8YsI3yu1mB0ZQNF-58" value="" style="endArrow=none;strokeColor=#FF0000;endFill=0;rounded=0;dashed=1;entryX=0.458;entryY=0.05;entryDx=0;entryDy=0;entryPerimeter=0;exitX=0.5;exitY=1;exitDx=0;exitDy=0;" parent="3" source="18" target="CguCu8YsI3yu1mB0ZQNF-57" edge="1">
          <mxGeometry relative="1" as="geometry">
            <mxPoint x="131" y="370" as="sourcePoint" />
            <mxPoint x="131" y="410" as="targetPoint" />
          </mxGeometry>
        </mxCell>
        <mxCell id="FWJEJCKYlN4or7lVuNc1-59" value="file.read_chunk()" style="rounded=0;whiteSpace=wrap;html=1;" parent="3" vertex="1">
          <mxGeometry x="69" y="649" width="120" height="60" as="geometry" />
        </mxCell>
        <mxCell id="FWJEJCKYlN4or7lVuNc1-62" value="" style="endArrow=none;strokeColor=#FF0000;endFill=0;rounded=0;dashed=1;entryX=0.5;entryY=0;entryDx=0;entryDy=0;exitX=0.438;exitY=1;exitDx=0;exitDy=0;exitPerimeter=0;" parent="3" source="CguCu8YsI3yu1mB0ZQNF-57" target="FWJEJCKYlN4or7lVuNc1-59" edge="1">
          <mxGeometry relative="1" as="geometry">
            <mxPoint x="129" y="600" as="sourcePoint" />
            <mxPoint x="130.26999999999998" y="693" as="targetPoint" />
          </mxGeometry>
        </mxCell>
        <mxCell id="4" value="Engine" style="swimlane;whiteSpace=wrap" parent="1" vertex="1">
          <mxGeometry x="611" y="120" width="339" height="770" as="geometry" />
        </mxCell>
        <mxCell id="33" value="file=get_next_file(url)" style="" parent="4" vertex="1">
          <mxGeometry x="74" y="357" width="120" height="50" as="geometry" />
        </mxCell>
        <mxCell id="39" value="" style="endArrow=open;strokeColor=#FF0000;endFill=1;rounded=0" parent="4" source="33" target="FWJEJCKYlN4or7lVuNc1-50" edge="1">
          <mxGeometry relative="1" as="geometry">
            <mxPoint x="209" y="437" as="targetPoint" />
          </mxGeometry>
        </mxCell>
        <mxCell id="CguCu8YsI3yu1mB0ZQNF-49" value="" style="ellipse;shape=startState;fillColor=#000000;strokeColor=#ff0000;" parent="4" vertex="1">
          <mxGeometry x="120" y="40" width="30" height="30" as="geometry" />
        </mxCell>
        <mxCell id="CguCu8YsI3yu1mB0ZQNF-50" value="" style="elbow=horizontal;verticalAlign=bottom;endArrow=open;endSize=8;strokeColor=#FF0000;endFill=1;rounded=0;entryX=0.5;entryY=0;entryDx=0;entryDy=0;" parent="4" source="CguCu8YsI3yu1mB0ZQNF-49" target="CguCu8YsI3yu1mB0ZQNF-51" edge="1">
          <mxGeometry x="-530" y="-100" as="geometry">
            <mxPoint x="135" y="180" as="targetPoint" />
            <mxPoint x="134.5" y="80" as="sourcePoint" />
          </mxGeometry>
        </mxCell>
        <mxCell id="CguCu8YsI3yu1mB0ZQNF-51" value="create_new_transfer_task(url)" style="rounded=0;whiteSpace=wrap;html=1;" parent="4" vertex="1">
          <mxGeometry x="51.5" y="192" width="165" height="50" as="geometry" />
        </mxCell>
        <mxCell id="CguCu8YsI3yu1mB0ZQNF-59" value="stat=file.stat()" style="" parent="4" vertex="1">
          <mxGeometry x="79" y="574" width="120" height="50" as="geometry" />
        </mxCell>
        <mxCell id="CguCu8YsI3yu1mB0ZQNF-43" value="" style="edgeStyle=elbowEdgeStyle;elbow=horizontal;strokeColor=#FF0000;endArrow=open;endFill=1;rounded=0;exitX=1;exitY=0.5;exitDx=0;exitDy=0;entryX=1;entryY=0.5;entryDx=0;entryDy=0;" parent="4" source="CguCu8YsI3yu1mB0ZQNF-59" target="33" edge="1">
          <mxGeometry width="100" height="100" relative="1" as="geometry">
            <mxPoint x="220" y="535" as="sourcePoint" />
            <mxPoint x="140" y="375" as="targetPoint" />
            <Array as="points">
              <mxPoint x="329" y="490" />
            </Array>
          </mxGeometry>
        </mxCell>
        <mxCell id="CguCu8YsI3yu1mB0ZQNF-72" value="select_output(url)" style="rounded=0;whiteSpace=wrap;html=1;" parent="4" vertex="1">
          <mxGeometry x="74" y="277" width="120" height="47" as="geometry" />
        </mxCell>
        <mxCell id="CguCu8YsI3yu1mB0ZQNF-74" value="" style="edgeStyle=elbowEdgeStyle;elbow=horizontal;verticalAlign=bottom;endArrow=open;endSize=8;strokeColor=#FF0000;endFill=1;rounded=0;exitX=0.5;exitY=1;exitDx=0;exitDy=0;entryX=0.5;entryY=0;entryDx=0;entryDy=0;" parent="4" source="CguCu8YsI3yu1mB0ZQNF-51" target="CguCu8YsI3yu1mB0ZQNF-72" edge="1">
          <mxGeometry x="-1100" y="-220" as="geometry">
            <mxPoint x="239" y="237" as="targetPoint" />
            <mxPoint x="239" y="87" as="sourcePoint" />
          </mxGeometry>
        </mxCell>
        <mxCell id="CguCu8YsI3yu1mB0ZQNF-75" value="" style="endArrow=open;strokeColor=#FF0000;endFill=1;rounded=0;exitX=0.5;exitY=1;exitDx=0;exitDy=0;" parent="4" source="CguCu8YsI3yu1mB0ZQNF-72" edge="1">
          <mxGeometry relative="1" as="geometry">
            <mxPoint x="133.5" y="330" as="sourcePoint" />
            <mxPoint x="134" y="357" as="targetPoint" />
          </mxGeometry>
        </mxCell>
        <mxCell id="FWJEJCKYlN4or7lVuNc1-50" value="file.is_none" style="rhombus;whiteSpace=wrap;html=1;" parent="4" vertex="1">
          <mxGeometry x="78" y="427" width="120" height="50" as="geometry" />
        </mxCell>
        <mxCell id="FWJEJCKYlN4or7lVuNc1-52" value="" style="endArrow=open;strokeColor=#FF0000;endFill=1;rounded=0;exitX=0;exitY=0.5;exitDx=0;exitDy=0;entryX=0.5;entryY=0;entryDx=0;entryDy=0;" parent="4" source="FWJEJCKYlN4or7lVuNc1-50" target="5YRIYOnIGHO2y424pPSx-69" edge="1">
          <mxGeometry relative="1" as="geometry">
            <mxPoint x="135.98000000000002" y="531" as="targetPoint" />
            <mxPoint x="133.98000000000002" y="510" as="sourcePoint" />
          </mxGeometry>
        </mxCell>
        <mxCell id="FWJEJCKYlN4or7lVuNc1-54" value="N" style="edgeLabel;html=1;align=center;verticalAlign=middle;resizable=0;points=[];" parent="FWJEJCKYlN4or7lVuNc1-52" vertex="1" connectable="0">
          <mxGeometry x="0.1515" y="2" relative="1" as="geometry">
            <mxPoint as="offset" />
          </mxGeometry>
        </mxCell>
        <mxCell id="5YRIYOnIGHO2y424pPSx-69" value="is delta" style="rhombus;whiteSpace=wrap;html=1;" parent="4" vertex="1">
          <mxGeometry x="9" y="477" width="80" height="43" as="geometry" />
        </mxCell>
        <mxCell id="5YRIYOnIGHO2y424pPSx-71" value="" style="edgeStyle=elbowEdgeStyle;elbow=horizontal;verticalAlign=bottom;endArrow=open;endSize=8;strokeColor=#FF0000;endFill=1;rounded=0;exitX=0.5;exitY=1;exitDx=0;exitDy=0;" parent="4" source="5YRIYOnIGHO2y424pPSx-69" target="CguCu8YsI3yu1mB0ZQNF-59" edge="1">
          <mxGeometry x="-581" y="-220" as="geometry">
            <mxPoint x="58.5" y="560" as="targetPoint" />
            <mxPoint x="58.5" y="520" as="sourcePoint" />
            <Array as="points">
              <mxPoint x="49" y="560" />
            </Array>
          </mxGeometry>
        </mxCell>
        <mxCell id="5YRIYOnIGHO2y424pPSx-72" value="N" style="edgeLabel;html=1;align=center;verticalAlign=middle;resizable=0;points=[];" parent="5YRIYOnIGHO2y424pPSx-71" vertex="1" connectable="0">
          <mxGeometry relative="1" as="geometry">
            <mxPoint y="-11" as="offset" />
          </mxGeometry>
        </mxCell>
        <mxCell id="CguCu8YsI3yu1mB0ZQNF-60" value="" style="edgeStyle=elbowEdgeStyle;elbow=horizontal;verticalAlign=bottom;endArrow=open;endSize=8;strokeColor=#FF0000;endFill=1;rounded=0;exitX=0;exitY=0.5;exitDx=0;exitDy=0;entryX=0.983;entryY=0.367;entryDx=0;entryDy=0;entryPerimeter=0;" parent="4" edge="1">
          <mxGeometry x="-1781" y="-340" as="geometry">
            <mxPoint x="-56.539999999999964" y="609.9999999999999" as="targetPoint" />
            <mxPoint x="79" y="610.65" as="sourcePoint" />
            <Array as="points">
              <mxPoint x="11" y="621.65" />
            </Array>
          </mxGeometry>
        </mxCell>
        <mxCell id="5YRIYOnIGHO2y424pPSx-74" value="" style="endArrow=open;strokeColor=#FF0000;endFill=1;rounded=0;exitX=1;exitY=0.5;exitDx=0;exitDy=0;" parent="4" source="5YRIYOnIGHO2y424pPSx-69" edge="1">
          <mxGeometry relative="1" as="geometry">
            <mxPoint x="139" y="499" as="sourcePoint" />
            <mxPoint x="389" y="500" as="targetPoint" />
          </mxGeometry>
        </mxCell>
        <mxCell id="5YRIYOnIGHO2y424pPSx-75" value="Y" style="edgeLabel;html=1;align=center;verticalAlign=middle;resizable=0;points=[];" parent="5YRIYOnIGHO2y424pPSx-74" vertex="1" connectable="0">
          <mxGeometry x="-0.6066" y="-2" relative="1" as="geometry">
            <mxPoint as="offset" />
          </mxGeometry>
        </mxCell>
        <mxCell id="5YRIYOnIGHO2y424pPSx-77" value="file updated?" style="rhombus;whiteSpace=wrap;html=1;" parent="4" vertex="1">
          <mxGeometry x="150" y="510" width="130" height="40" as="geometry" />
        </mxCell>
        <mxCell id="5YRIYOnIGHO2y424pPSx-79" value="" style="endArrow=open;strokeColor=#FF0000;endFill=1;rounded=0;entryX=0.5;entryY=0;entryDx=0;entryDy=0;" parent="4" target="CguCu8YsI3yu1mB0ZQNF-59" edge="1">
          <mxGeometry relative="1" as="geometry">
            <mxPoint x="149" y="530" as="sourcePoint" />
            <mxPoint x="409" y="561.5" as="targetPoint" />
          </mxGeometry>
        </mxCell>
        <mxCell id="5YRIYOnIGHO2y424pPSx-80" value="Y" style="edgeLabel;html=1;align=center;verticalAlign=middle;resizable=0;points=[];" parent="5YRIYOnIGHO2y424pPSx-79" vertex="1" connectable="0">
          <mxGeometry x="-0.6066" y="-2" relative="1" as="geometry">
            <mxPoint x="-6" y="12" as="offset" />
          </mxGeometry>
        </mxCell>
        <mxCell id="5YRIYOnIGHO2y424pPSx-81" value="" style="endArrow=open;strokeColor=#FF0000;endFill=1;rounded=0;exitX=0.5;exitY=0;exitDx=0;exitDy=0;" parent="4" source="5YRIYOnIGHO2y424pPSx-77" edge="1">
          <mxGeometry relative="1" as="geometry">
            <mxPoint x="239" y="450" as="sourcePoint" />
            <mxPoint x="199" y="380" as="targetPoint" />
          </mxGeometry>
        </mxCell>
        <mxCell id="5YRIYOnIGHO2y424pPSx-82" value="N" style="edgeLabel;html=1;align=center;verticalAlign=middle;resizable=0;points=[];" parent="5YRIYOnIGHO2y424pPSx-81" vertex="1" connectable="0">
          <mxGeometry x="-0.6066" y="-2" relative="1" as="geometry">
            <mxPoint x="-6" y="-7" as="offset" />
          </mxGeometry>
        </mxCell>
        <mxCell id="JHUbbDQbZnptLvGb7uCV-41" value="" style="endArrow=classic;startArrow=classic;html=1;rounded=0;" parent="4" edge="1">
          <mxGeometry width="50" height="50" relative="1" as="geometry">
            <mxPoint x="-58.5" y="50" as="sourcePoint" />
            <mxPoint x="51.5" y="50" as="targetPoint" />
          </mxGeometry>
        </mxCell>
        <mxCell id="JHUbbDQbZnptLvGb7uCV-42" value="http" style="edgeLabel;html=1;align=center;verticalAlign=middle;resizable=0;points=[];" parent="JHUbbDQbZnptLvGb7uCV-41" vertex="1" connectable="0">
          <mxGeometry x="0.4727" y="-1" relative="1" as="geometry">
            <mxPoint x="-20" as="offset" />
          </mxGeometry>
        </mxCell>
        <mxCell id="CguCu8YsI3yu1mB0ZQNF-41" value="Target" style="swimlane;whiteSpace=wrap" parent="1" vertex="1">
          <mxGeometry x="950" y="120" width="211" height="770" as="geometry" />
        </mxCell>
        <mxCell id="CguCu8YsI3yu1mB0ZQNF-61" value="" style="ellipse;shape=startState;fillColor=#000000;strokeColor=#ff0000;" parent="CguCu8YsI3yu1mB0ZQNF-41" vertex="1">
          <mxGeometry x="97" y="40" width="30" height="30" as="geometry" />
        </mxCell>
        <mxCell id="CguCu8YsI3yu1mB0ZQNF-62" value="alloter = generate_space_alloter" style="rounded=0;whiteSpace=wrap;html=1;" parent="CguCu8YsI3yu1mB0ZQNF-41" vertex="1">
          <mxGeometry x="28.5" y="277" width="165" height="50" as="geometry" />
        </mxCell>
        <mxCell id="CguCu8YsI3yu1mB0ZQNF-77" value="" style="elbow=horizontal;verticalAlign=bottom;endArrow=open;endSize=8;strokeColor=#FF0000;endFill=1;rounded=0;exitX=0.5;exitY=1;exitDx=0;exitDy=0;entryX=0.5;entryY=0;entryDx=0;entryDy=0;" parent="CguCu8YsI3yu1mB0ZQNF-41" source="CguCu8YsI3yu1mB0ZQNF-61" target="CguCu8YsI3yu1mB0ZQNF-62" edge="1">
          <mxGeometry x="-1380" y="-220" as="geometry">
            <mxPoint x="111.5" y="250" as="targetPoint" />
            <mxPoint x="111.5" y="100" as="sourcePoint" />
          </mxGeometry>
        </mxCell>
        <mxCell id="FWJEJCKYlN4or7lVuNc1-39" value="alloter.alloc()" style="rounded=0;whiteSpace=wrap;html=1;" parent="CguCu8YsI3yu1mB0ZQNF-41" vertex="1">
          <mxGeometry x="52" y="576" width="120" height="44" as="geometry" />
        </mxCell>
        <mxCell id="FWJEJCKYlN4or7lVuNc1-42" value="" style="endArrow=none;strokeColor=#FF0000;endFill=0;rounded=0;dashed=1;entryX=0.5;entryY=0;entryDx=0;entryDy=0;exitX=0.5;exitY=1;exitDx=0;exitDy=0;" parent="CguCu8YsI3yu1mB0ZQNF-41" source="CguCu8YsI3yu1mB0ZQNF-62" target="FWJEJCKYlN4or7lVuNc1-39" edge="1">
          <mxGeometry relative="1" as="geometry">
            <mxPoint x="111.5" y="350" as="sourcePoint" />
            <mxPoint x="111.5" y="460" as="targetPoint" />
          </mxGeometry>
        </mxCell>
        <mxCell id="FWJEJCKYlN4or7lVuNc1-49" value="chunk = alloter.read_chunk()" style="rounded=0;whiteSpace=wrap;html=1;" parent="CguCu8YsI3yu1mB0ZQNF-41" vertex="1">
          <mxGeometry x="52" y="648" width="120" height="40" as="geometry" />
        </mxCell>
        <mxCell id="FWJEJCKYlN4or7lVuNc1-64" value="storage.save_chunk(chunk)" style="rounded=0;whiteSpace=wrap;html=1;" parent="CguCu8YsI3yu1mB0ZQNF-41" vertex="1">
          <mxGeometry x="27" y="710" width="170" height="40" as="geometry" />
        </mxCell>
        <mxCell id="FWJEJCKYlN4or7lVuNc1-67" value="" style="endArrow=open;strokeColor=#FF0000;endFill=1;rounded=0;exitX=0.5;exitY=1;exitDx=0;exitDy=0;" parent="CguCu8YsI3yu1mB0ZQNF-41" source="FWJEJCKYlN4or7lVuNc1-49" target="FWJEJCKYlN4or7lVuNc1-64" edge="1">
          <mxGeometry relative="1" as="geometry">
            <mxPoint x="111.5" y="700" as="sourcePoint" />
            <mxPoint x="112" y="727" as="targetPoint" />
          </mxGeometry>
        </mxCell>
        <mxCell id="5YRIYOnIGHO2y424pPSx-68" value="" style="endArrow=none;strokeColor=#FF0000;endFill=0;rounded=0;dashed=1;entryX=0.5;entryY=0;entryDx=0;entryDy=0;exitX=0.5;exitY=1;exitDx=0;exitDy=0;" parent="CguCu8YsI3yu1mB0ZQNF-41" source="FWJEJCKYlN4or7lVuNc1-39" target="FWJEJCKYlN4or7lVuNc1-49" edge="1">
          <mxGeometry relative="1" as="geometry">
            <mxPoint x="250" y="360" as="sourcePoint" />
            <mxPoint x="251" y="597" as="targetPoint" />
          </mxGeometry>
        </mxCell>
        <mxCell id="5YRIYOnIGHO2y424pPSx-73" value="read latest file hash" style="rounded=0;whiteSpace=wrap;html=1;" parent="CguCu8YsI3yu1mB0ZQNF-41" vertex="1">
          <mxGeometry x="51" y="490" width="120" height="30" as="geometry" />
        </mxCell>
        <mxCell id="JHUbbDQbZnptLvGb7uCV-43" value="" style="endArrow=classic;startArrow=classic;html=1;rounded=0;" parent="CguCu8YsI3yu1mB0ZQNF-41" edge="1">
          <mxGeometry width="50" height="50" relative="1" as="geometry">
            <mxPoint x="-59" y="54.5" as="sourcePoint" />
            <mxPoint x="51" y="54.5" as="targetPoint" />
          </mxGeometry>
        </mxCell>
        <mxCell id="JHUbbDQbZnptLvGb7uCV-44" value="http" style="edgeLabel;html=1;align=center;verticalAlign=middle;resizable=0;points=[];" parent="JHUbbDQbZnptLvGb7uCV-43" vertex="1" connectable="0">
          <mxGeometry x="0.4727" y="-1" relative="1" as="geometry">
            <mxPoint x="-20" as="offset" />
          </mxGeometry>
        </mxCell>
        <mxCell id="CguCu8YsI3yu1mB0ZQNF-56" value="" style="edgeStyle=elbowEdgeStyle;elbow=horizontal;verticalAlign=bottom;endArrow=open;endSize=8;strokeColor=#FF0000;endFill=1;rounded=0;exitX=0;exitY=0.5;exitDx=0;exitDy=0;entryX=1;entryY=0.5;entryDx=0;entryDy=0;" parent="1" source="33" target="18" edge="1">
          <mxGeometry x="-1100" y="-220" as="geometry">
            <mxPoint x="760.5" y="612" as="targetPoint" />
            <mxPoint x="760" y="532" as="sourcePoint" />
          </mxGeometry>
        </mxCell>
        <mxCell id="CguCu8YsI3yu1mB0ZQNF-76" value="" style="endArrow=open;strokeColor=#FF0000;endFill=1;rounded=0;exitX=1;exitY=0.5;exitDx=0;exitDy=0;entryX=0;entryY=0.5;entryDx=0;entryDy=0;" parent="1" source="CguCu8YsI3yu1mB0ZQNF-72" target="CguCu8YsI3yu1mB0ZQNF-62" edge="1">
          <mxGeometry relative="1" as="geometry">
            <mxPoint x="930" y="367" as="sourcePoint" />
            <mxPoint x="930" y="427" as="targetPoint" />
          </mxGeometry>
        </mxCell>
        <mxCell id="FWJEJCKYlN4or7lVuNc1-41" value="" style="endArrow=open;strokeColor=#FF0000;endFill=1;rounded=0;exitX=1;exitY=0.5;exitDx=0;exitDy=0;entryX=0;entryY=0.5;entryDx=0;entryDy=0;" parent="1" source="CguCu8YsI3yu1mB0ZQNF-59" target="FWJEJCKYlN4or7lVuNc1-39" edge="1">
          <mxGeometry relative="1" as="geometry">
            <mxPoint x="831" y="613.75" as="sourcePoint" />
            <mxPoint x="974" y="614.75" as="targetPoint" />
          </mxGeometry>
        </mxCell>
        <mxCell id="FWJEJCKYlN4or7lVuNc1-57" value="" style="edgeStyle=elbowEdgeStyle;elbow=horizontal;strokeColor=#FF0000;endArrow=open;endFill=1;rounded=0;exitX=1;exitY=0.5;exitDx=0;exitDy=0;entryX=0;entryY=0.25;entryDx=0;entryDy=0;" parent="1" source="FWJEJCKYlN4or7lVuNc1-50" target="FWJEJCKYlN4or7lVuNc1-49" edge="1">
          <mxGeometry width="100" height="100" relative="1" as="geometry">
            <mxPoint x="731.5" y="913" as="sourcePoint" />
            <mxPoint x="959" y="789" as="targetPoint" />
            <Array as="points">
              <mxPoint x="930" y="680" />
            </Array>
          </mxGeometry>
        </mxCell>
        <mxCell id="FWJEJCKYlN4or7lVuNc1-58" value="Y" style="edgeLabel;html=1;align=center;verticalAlign=middle;resizable=0;points=[];" parent="FWJEJCKYlN4or7lVuNc1-57" vertex="1" connectable="0">
          <mxGeometry x="-0.3222" relative="1" as="geometry">
            <mxPoint as="offset" />
          </mxGeometry>
        </mxCell>
        <mxCell id="FWJEJCKYlN4or7lVuNc1-61" value="" style="edgeStyle=elbowEdgeStyle;elbow=horizontal;verticalAlign=bottom;endArrow=open;endSize=8;strokeColor=#FF0000;endFill=1;rounded=0;exitX=0;exitY=0.75;exitDx=0;exitDy=0;entryX=1;entryY=0.5;entryDx=0;entryDy=0;" parent="1" source="FWJEJCKYlN4or7lVuNc1-49" target="FWJEJCKYlN4or7lVuNc1-59" edge="1">
          <mxGeometry x="-1170" y="-220" as="geometry">
            <mxPoint x="531" y="840" as="targetPoint" />
            <mxPoint x="686" y="840" as="sourcePoint" />
          </mxGeometry>
        </mxCell>
        <mxCell id="5YRIYOnIGHO2y424pPSx-40" value="" style="edgeStyle=elbowEdgeStyle;elbow=horizontal;strokeColor=#FF0000;endArrow=open;endFill=1;rounded=0;exitX=1;exitY=0.5;exitDx=0;exitDy=0;entryX=0;entryY=0.5;entryDx=0;entryDy=0;" parent="1" source="7" target="15" edge="1">
          <mxGeometry width="100" height="100" relative="1" as="geometry">
            <mxPoint x="144" y="683" as="sourcePoint" />
            <mxPoint x="220" y="320" as="targetPoint" />
            <Array as="points">
              <mxPoint x="330" y="550" />
            </Array>
          </mxGeometry>
        </mxCell>
        <mxCell id="5YRIYOnIGHO2y424pPSx-41" value="start process" style="edgeLabel;html=1;align=center;verticalAlign=middle;resizable=0;points=[];" parent="5YRIYOnIGHO2y424pPSx-40" vertex="1" connectable="0">
          <mxGeometry x="0.2358" y="1" relative="1" as="geometry">
            <mxPoint as="offset" />
          </mxGeometry>
        </mxCell>
        <mxCell id="CguCu8YsI3yu1mB0ZQNF-52" value="" style="endArrow=open;strokeColor=#FF0000;endFill=1;rounded=0;entryX=0;entryY=0.5;entryDx=0;entryDy=0;exitX=1;exitY=0.5;exitDx=0;exitDy=0;" parent="1" source="16" target="CguCu8YsI3yu1mB0ZQNF-51" edge="1">
          <mxGeometry relative="1" as="geometry">
            <mxPoint x="560" y="337" as="sourcePoint" />
            <mxPoint x="690" y="337" as="targetPoint" />
          </mxGeometry>
        </mxCell>
        <mxCell id="5YRIYOnIGHO2y424pPSx-78" value="" style="endArrow=open;strokeColor=#FF0000;endFill=1;rounded=0;exitX=0;exitY=0.75;exitDx=0;exitDy=0;entryX=1;entryY=0.5;entryDx=0;entryDy=0;" parent="1" source="5YRIYOnIGHO2y424pPSx-73" target="5YRIYOnIGHO2y424pPSx-77" edge="1">
          <mxGeometry relative="1" as="geometry">
            <mxPoint x="1110" y="550.5" as="sourcePoint" />
            <mxPoint x="1284" y="551.5" as="targetPoint" />
          </mxGeometry>
        </mxCell>
        <mxCell id="JHUbbDQbZnptLvGb7uCV-39" value="" style="endArrow=classic;startArrow=classic;html=1;rounded=0;" parent="1" edge="1">
          <mxGeometry width="50" height="50" relative="1" as="geometry">
            <mxPoint x="300" y="170" as="sourcePoint" />
            <mxPoint x="410" y="170" as="targetPoint" />
          </mxGeometry>
        </mxCell>
        <mxCell id="JHUbbDQbZnptLvGb7uCV-40" value="http" style="edgeLabel;html=1;align=center;verticalAlign=middle;resizable=0;points=[];" parent="JHUbbDQbZnptLvGb7uCV-39" vertex="1" connectable="0">
          <mxGeometry x="0.4727" y="-1" relative="1" as="geometry">
            <mxPoint x="-20" as="offset" />
          </mxGeometry>
        </mxCell>
      </root>
    </mxGraphModel>
  </diagram>
</mxfile>
